<svg width="256" height="36" viewBox="0 0 256 36" fill="none" xmlns="http://www.w3.org/2000/svg">
<g clip-path="url(#clip0_367_1068)">
<path d="M152.216 14.4902C152.945 13.7098 153.741 12.9961 154.372 12.156C155.846 10.1965 155.733 7.41252 154.19 5.50688C154.071 5.36073 153.935 5.22735 153.823 5.07552C153.589 4.75768 153.602 4.47389 153.843 4.25537C154.088 4.03402 154.347 4.05246 154.657 4.32774C154.78 4.437 154.886 4.5647 154.992 4.69241C157.144 7.26921 157.048 11.0294 154.756 13.5012C154.23 14.0702 153.671 14.6094 153.117 15.1741C154.151 16.1192 155.153 17.0386 156.155 17.9553C156.79 17.741 156.938 17.5651 156.944 16.9691C156.946 16.6385 156.905 16.3079 156.91 15.9773C156.925 14.7016 157.775 13.8545 159.046 13.8432C159.399 13.8403 159.752 13.8843 160.104 13.8701C160.685 13.8488 161.01 13.5196 161.029 12.9322C161.041 12.5789 160.994 12.2242 160.998 11.8694C161.012 10.5924 161.859 9.74526 163.132 9.73249C163.367 9.72965 163.602 9.74242 163.837 9.75945C164.22 9.78641 164.568 9.74384 164.901 9.49553C165.225 9.25289 165.51 9.31248 165.705 9.57073C165.89 9.81621 165.843 10.1298 165.568 10.388C165.23 10.7073 164.822 10.8818 164.359 10.8946C164.007 10.9045 163.654 10.879 163.302 10.8733C162.451 10.8591 162.112 11.2082 162.134 12.078C162.143 12.3845 162.175 12.6924 162.163 12.9989C162.118 14.1724 161.303 14.9797 160.132 15.011C159.78 15.0209 159.428 14.9783 159.075 14.9826C158.392 14.9897 158.05 15.3472 158.042 16.0439C158.04 16.1858 158.046 16.3277 158.061 16.4682C158.17 17.453 157.971 18.3114 157.023 18.879C157.627 19.5686 158.195 20.2185 158.794 20.901C159.364 20.3334 159.888 19.7942 160.432 19.2749C162.919 16.9081 166.721 16.8201 169.294 19.0635C169.435 19.1869 169.585 19.3118 169.688 19.465C169.849 19.7034 169.842 19.9659 169.636 20.1802C169.431 20.3916 169.181 20.4271 168.936 20.2483C168.765 20.1234 168.614 19.973 168.45 19.8382C166.486 18.2121 163.662 18.1369 161.669 19.7233C160.901 20.3348 160.239 21.0798 159.497 21.7935C159.669 22.0489 159.824 22.2518 159.95 22.4703C160.456 23.3458 160.99 24.2085 161.44 25.1138C161.632 25.4998 161.697 25.9737 161.721 26.4122C161.753 27.0166 161.454 27.3714 160.9 27.5941C155.294 29.8446 149.691 32.0979 144.086 34.3512C142.909 34.8251 141.736 35.3132 140.554 35.7715C140.232 35.8964 139.876 35.9957 139.535 35.9985C138.719 36.0085 138.099 35.3941 138.102 34.5725C138.102 34.2064 138.197 33.8205 138.332 33.4785C140.548 27.9106 142.781 22.3497 145.004 16.7846C145.502 15.536 145.979 14.2788 146.464 13.0259C146.692 12.4398 147.214 12.1064 147.871 12.2242C148.351 12.3107 148.845 12.4427 149.274 12.6669C150.063 13.0798 150.813 13.5736 151.573 14.0404C151.772 14.1624 151.957 14.3086 152.214 14.4902H152.216ZM140.661 30.6917C141.587 30.5924 142.401 30.5101 143.213 30.4164C145.942 30.1014 148.669 29.7651 151.401 29.4742C152.878 29.3167 154.326 29.111 155.686 28.454C156.531 28.0468 157.422 27.7346 158.29 27.377C158.416 27.326 158.536 27.2621 158.654 27.2054C157.686 26.5427 156.73 25.9155 155.809 25.2415C155.476 24.9989 155.168 24.9308 154.769 24.9776C151.621 25.3565 148.471 25.7155 145.323 26.0816C144.346 26.1951 143.371 26.3128 142.367 26.432C141.807 27.8297 141.255 29.2032 140.66 30.6889L140.661 30.6917ZM147.516 13.294C147.596 13.7013 147.598 13.9907 147.709 14.2263C148.011 14.8634 148.322 15.5019 148.699 16.095C149.881 17.9538 151.338 19.5899 152.887 21.1436C154.537 22.7981 156.275 24.3519 158.27 25.5778C158.807 25.907 159.399 26.1497 159.974 26.4122C160.157 26.4959 160.373 26.5753 160.63 26.3214C160.348 24.9393 159.515 23.8212 158.68 22.6633C158.464 22.8705 158.301 23.0408 158.122 23.1912C157.823 23.4423 157.526 23.4466 157.305 23.2224C157.086 23.001 157.086 22.6917 157.33 22.398C157.521 22.1681 157.735 21.9581 157.979 21.697C157.319 20.9535 156.674 20.2681 156.078 19.5416C155.771 19.167 155.409 19.0847 154.966 19.0805C154.605 19.0762 154.352 19.272 154.07 19.4395C153.802 19.5984 153.568 19.4948 153.387 19.272C153.219 19.0649 153.204 18.8222 153.38 18.6236C153.534 18.4519 153.73 18.3143 153.92 18.1795C154.062 18.0801 154.223 18.0092 154.437 17.8914C153.696 17.2359 153.013 16.6314 152.314 16.0127C152.176 16.1319 152.069 16.2199 151.967 16.315C151.847 16.4271 151.74 16.5548 151.613 16.6584C151.311 16.9052 151.013 16.9081 150.796 16.6796C150.584 16.4569 150.591 16.1461 150.83 15.851C150.974 15.6722 151.137 15.5076 151.342 15.2806C150.185 14.4476 149.084 13.6247 147.513 13.2912L147.516 13.294ZM150.364 20.2767C148.459 20.5008 146.504 20.7307 144.552 20.9606C143.985 22.3852 143.44 23.7531 142.853 25.2259C146.659 24.7861 150.341 24.359 153.908 23.946C152.752 22.7499 151.595 21.5509 150.364 20.2767ZM139.374 34.9017C139.672 34.8293 139.945 34.7953 140.194 34.696C143.134 33.5182 146.069 32.332 149.006 31.1458C149.129 31.0961 149.245 31.0266 149.363 30.9656C149.353 30.9287 149.345 30.8918 149.335 30.8535C146.291 31.2054 143.247 31.5573 140.233 31.9049C139.432 33.4686 139.197 34.2249 139.374 34.9017ZM149.497 19.2337C148.58 17.8928 147.711 16.6229 146.814 15.3132C146.234 16.7662 145.663 18.1965 145.047 19.7389C146.584 19.5643 148.021 19.4012 149.497 19.2337Z" fill="url(#paint0_linear_367_1068)"/>
<path d="M160.073 5.65161C160.948 5.66438 161.681 6.415 161.672 7.28623C161.662 8.15888 160.912 8.8939 160.04 8.88822C159.162 8.88254 158.445 8.14327 158.454 7.2536C158.462 6.36534 159.197 5.63884 160.074 5.65303L160.073 5.65161ZM160.18 7.74029C160.264 7.63246 160.449 7.48489 160.513 7.29617C160.589 7.06913 160.304 6.7967 160.056 6.79954C159.833 6.80237 159.611 7.01238 159.594 7.23799C159.576 7.48772 159.811 7.74171 160.18 7.74029Z" fill="url(#paint1_linear_367_1068)"/>
<path d="M168.356 10.6052C169.241 10.6023 169.979 11.3501 169.965 12.2341C169.949 13.0983 169.242 13.8205 168.394 13.8404C167.509 13.8602 166.771 13.1352 166.761 12.2355C166.751 11.3303 167.458 10.6066 168.357 10.6038L168.356 10.6052ZM168.819 12.2228C168.821 11.9844 168.615 11.763 168.38 11.7517C168.14 11.7389 167.925 11.9305 167.904 12.1774C167.881 12.4455 168.11 12.6981 168.37 12.6896C168.593 12.6825 168.816 12.4512 168.819 12.2242V12.2228Z" fill="url(#paint2_linear_367_1068)"/>
<path d="M170.425 15.841C171.468 15.8467 172.097 16.2624 172.475 17.0627C172.543 17.2075 172.629 17.3919 172.594 17.5281C172.547 17.7112 172.425 17.9439 172.271 18.0106C172.12 18.0773 171.885 17.9822 171.698 17.9226C171.627 17.8999 171.585 17.7807 171.534 17.7013C171.032 16.9223 171.017 16.9166 170.042 17.0911C169.654 17.1606 169.396 17.04 169.3 16.742C169.195 16.4185 169.352 16.1319 169.753 15.9943C170.015 15.9035 170.296 15.868 170.425 15.8396V15.841Z" fill="url(#paint3_linear_367_1068)"/>
<path d="M158.967 2.03047C158.894 2.34973 158.85 2.68035 158.737 2.984C158.619 3.30468 158.338 3.42813 158.066 3.35151C157.768 3.26779 157.627 2.99961 157.69 2.62359C157.71 2.50724 157.748 2.39514 157.768 2.27879C157.852 1.78358 157.704 1.41181 157.246 1.1564C156.742 0.874033 156.622 0.610109 156.783 0.290847C156.959 -0.0567938 157.306 -0.0922674 157.824 0.185845C158.552 0.577474 158.922 1.1933 158.967 2.03047Z" fill="url(#paint4_linear_367_1068)"/>
<path d="M147.966 9.62036C147.524 9.61752 147.228 9.40184 147.208 9.06697C147.187 8.71507 147.485 8.46392 147.908 8.47811C148.36 8.49372 148.622 8.71082 148.62 9.06839C148.617 9.41887 148.377 9.62178 147.966 9.61894V9.62036Z" fill="url(#paint5_linear_367_1068)"/>
<path d="M165.478 26.1555C165.486 26.5471 165.251 26.8181 164.902 26.8153C164.545 26.8125 164.34 26.5414 164.339 26.0675C164.339 25.6617 164.568 25.3822 164.895 25.3921C165.22 25.4006 165.469 25.727 165.478 26.1555Z" fill="url(#paint6_linear_367_1068)"/>
</g>
<path d="M26.8513 8.39893C29.4444 8.39893 31.5635 9.25302 33.2086 10.9612C34.8537 12.6409 35.6762 15.1463 35.6762 18.4772V32.0573H33.836V18.6053C33.836 15.8438 33.1807 13.737 31.8702 12.285C30.5876 10.8046 28.817 10.0644 26.5585 10.0644C24.2163 10.0644 22.3342 10.89 20.9122 12.5413C19.4902 14.1925 18.7792 16.584 18.7792 19.7157V32.0573H16.9389V18.6053C16.9389 15.8438 16.2836 13.737 14.9731 12.285C13.6905 10.8046 11.92 10.0644 9.66144 10.0644C7.31928 10.0644 5.43718 10.89 4.01515 12.5413C2.59311 14.1925 1.8821 16.584 1.8821 19.7157V32.0573H0V8.86868H1.8821V13.9078C2.52341 12.0858 3.55508 10.7192 4.97711 9.80818C6.42702 8.86868 8.08606 8.39893 9.95421 8.39893C12.0176 8.39893 13.7881 8.95409 15.2659 10.0644C16.7716 11.1463 17.8033 12.7548 18.3609 14.89C18.8907 12.7548 19.9224 11.1463 21.4559 10.0644C22.9895 8.95409 24.7879 8.39893 26.8513 8.39893Z" fill="#141414"/>
<path d="M62.8075 18.9043C62.8075 19.9292 62.7797 20.6979 62.7239 21.2103H43.1082C43.164 23.2886 43.6101 25.0395 44.4466 26.463C45.2831 27.8865 46.3845 28.9541 47.7508 29.6658C49.117 30.3776 50.6088 30.7334 52.226 30.7334C54.4566 30.7334 56.3248 30.1783 57.8304 29.068C59.3361 27.9292 60.2841 26.3918 60.6745 24.4559H62.6403C62.1941 26.8189 61.0509 28.7406 59.2106 30.221C57.3704 31.6729 55.0421 32.3989 52.226 32.3989C50.1069 32.3989 48.2108 31.9149 46.5378 30.947C44.8649 29.979 43.5544 28.5982 42.6063 26.8046C41.6583 24.9826 41.1843 22.8616 41.1843 20.4416C41.1843 18.0217 41.6444 15.9149 42.5645 14.1213C43.5125 12.3278 44.823 10.9612 46.496 10.0217C48.169 9.05373 50.079 8.56974 52.226 8.56974C54.4008 8.56974 56.2829 9.05373 57.8723 10.0217C59.4895 10.9612 60.7163 12.2281 61.5528 13.8224C62.3893 15.3882 62.8075 17.0822 62.8075 18.9043ZM60.9254 19.6302C61.0091 17.5804 60.6466 15.8438 59.838 14.4203C59.0573 12.9968 57.9838 11.9434 56.6175 11.2601C55.2513 10.5484 53.7735 10.1925 52.1841 10.1925C50.5948 10.1925 49.117 10.5484 47.7508 11.2601C46.4124 11.9434 45.311 12.9968 44.4466 14.4203C43.6101 15.8438 43.164 17.5804 43.1082 19.6302H60.9254Z" fill="#141414"/>
<path d="M95.3469 8.39893C97.9401 8.39893 100.059 9.25302 101.704 10.9612C103.349 12.6409 104.172 15.1463 104.172 18.4772V32.0573H102.332V18.6053C102.332 15.8438 101.676 13.737 100.366 12.285C99.0833 10.8046 97.3127 10.0644 95.0542 10.0644C92.712 10.0644 90.8299 10.89 89.4079 12.5413C87.9858 14.1925 87.2748 16.584 87.2748 19.7157V32.0573H85.4346V18.6053C85.4346 15.8438 84.7793 13.737 83.4688 12.285C82.1862 10.8046 80.4156 10.0644 78.1571 10.0644C75.8149 10.0644 73.9328 10.89 72.5108 12.5413C71.0888 14.1925 70.3778 16.584 70.3778 19.7157V32.0573H68.4957V8.86868H70.3778V13.9078C71.0191 12.0858 72.0507 10.7192 73.4728 9.80818C74.9227 8.86868 76.5817 8.39893 78.4499 8.39893C80.5132 8.39893 82.2838 8.95409 83.7616 10.0644C85.2673 11.1463 86.2989 12.7548 86.8566 14.89C87.3864 12.7548 88.418 11.1463 89.9516 10.0644C91.4852 8.95409 93.2836 8.39893 95.3469 8.39893Z" fill="#141414"/>
<path d="M120.847 32.3989C118.728 32.3989 116.818 31.9149 115.117 30.947C113.416 29.979 112.078 28.5982 111.102 26.8046C110.154 24.9826 109.68 22.8616 109.68 20.4416C109.68 18.0502 110.168 15.9576 111.144 14.164C112.12 12.342 113.458 10.9612 115.159 10.0217C116.888 9.05373 118.812 8.56974 120.931 8.56974C123.05 8.56974 124.96 9.05373 126.661 10.0217C128.362 10.9612 129.686 12.3278 130.634 14.1213C131.61 15.9149 132.098 18.0217 132.098 20.4416C132.098 22.8616 131.61 24.9826 130.634 26.8046C129.658 28.5982 128.306 29.979 126.577 30.947C124.876 31.9149 122.966 32.3989 120.847 32.3989ZM120.847 30.6907C122.492 30.6907 124.026 30.3206 125.448 29.5804C126.898 28.8117 128.055 27.6587 128.919 26.1213C129.784 24.584 130.216 22.6907 130.216 20.4416C130.216 18.221 129.784 16.342 128.919 14.8046C128.055 13.2673 126.912 12.1285 125.49 11.3882C124.068 10.6196 122.534 10.2352 120.889 10.2352C119.244 10.2352 117.71 10.6196 116.288 11.3882C114.894 12.1285 113.765 13.2673 112.9 14.8046C112.036 16.342 111.604 18.221 111.604 20.4416C111.604 22.6907 112.022 24.584 112.859 26.1213C113.723 27.6587 114.852 28.8117 116.246 29.5804C117.668 30.3206 119.202 30.6907 120.847 30.6907Z" fill="#141414"/>
<path d="M180.794 14.05C181.345 12.378 182.324 11.1101 183.731 10.2463C185.137 9.35453 186.929 8.90866 189.108 8.90866V10.8732H188.487C186.281 10.8732 184.448 11.5142 182.986 12.796C181.525 14.05 180.794 16.1121 180.794 18.9824V32.0657H178.933V9.36846H180.794V14.05Z" fill="#141414"/>
<path d="M192.235 20.6962C192.235 18.3554 192.69 16.3072 193.6 14.5516C194.538 12.796 195.82 11.4445 197.447 10.4971C199.101 9.54959 200.976 9.07586 203.072 9.07586C205.443 9.07586 207.456 9.66106 209.111 10.8314C210.765 12.0018 211.924 13.4927 212.585 15.304V9.36846H214.447V32.0657H212.585V26.0883C211.924 27.9275 210.752 29.4463 209.07 30.6445C207.415 31.8149 205.416 32.4001 203.072 32.4001C200.976 32.4001 199.101 31.9264 197.447 30.9789C195.82 30.0036 194.538 28.6381 193.6 26.8825C192.69 25.0991 192.235 23.037 192.235 20.6962ZM212.585 20.6962C212.585 18.7177 212.172 16.976 211.345 15.4712C210.545 13.9386 209.442 12.7682 208.036 11.96C206.629 11.124 205.057 10.706 203.32 10.706C201.5 10.706 199.901 11.1101 198.522 11.9182C197.143 12.6985 196.068 13.841 195.296 15.3458C194.524 16.8506 194.138 18.6341 194.138 20.6962C194.138 22.7583 194.524 24.5418 195.296 26.0465C196.068 27.5513 197.143 28.7078 198.522 29.5159C199.929 30.324 201.528 30.7281 203.32 30.7281C205.057 30.7281 206.629 30.324 208.036 29.5159C209.469 28.6799 210.586 27.5095 211.386 26.0047C212.186 24.4721 212.585 22.7026 212.585 20.6962Z" fill="#141414"/>
<path d="M223.995 10.9986V26.0047C223.995 27.6767 224.299 28.8332 224.905 29.4741C225.512 30.0872 226.587 30.3937 228.131 30.3937H230.655V32.0657H227.842C225.884 32.0657 224.436 31.6059 223.499 30.6863C222.589 29.7388 222.134 28.1783 222.134 26.0047V10.9986H218.742V9.36846H222.134V3.6001H223.995V9.36846H230.655V10.9986H223.995Z" fill="#141414"/>
<path d="M255.79 19.1914C255.79 20.1946 255.762 20.947 255.707 21.4486H236.308C236.363 23.4828 236.804 25.1966 237.632 26.5899C238.459 27.9833 239.548 29.0283 240.899 29.7249C242.25 30.4216 243.726 30.7699 245.325 30.7699C247.531 30.7699 249.378 30.2265 250.867 29.1397C252.356 28.0251 253.294 26.5203 253.68 24.6254H255.624C255.183 26.9383 254.052 28.8193 252.232 30.2683C250.412 31.6895 248.11 32.4001 245.325 32.4001C243.229 32.4001 241.354 31.9264 239.7 30.9789C238.045 30.0314 236.749 28.6799 235.812 26.9243C234.874 25.1409 234.405 23.0648 234.405 20.6962C234.405 18.3275 234.86 16.2654 235.77 14.5098C236.708 12.7542 238.004 11.4166 239.658 10.4971C241.313 9.54959 243.202 9.07586 245.325 9.07586C247.476 9.07586 249.337 9.54959 250.909 10.4971C252.508 11.4166 253.721 12.6567 254.549 14.2172C255.376 15.7499 255.79 17.4079 255.79 19.1914ZM253.928 19.902C254.011 17.8956 253.653 16.1957 252.853 14.8024C252.081 13.4091 251.019 12.378 249.668 11.7092C248.317 11.0126 246.855 10.6642 245.284 10.6642C243.712 10.6642 242.25 11.0126 240.899 11.7092C239.576 12.378 238.486 13.4091 237.632 14.8024C236.804 16.1957 236.363 17.8956 236.308 19.902H253.928Z" fill="#141414"/>
<defs>
<linearGradient id="paint0_linear_367_1068" x1="180.227" y1="43.4028" x2="125.317" y2="43.9181" gradientUnits="userSpaceOnUse">
<stop stop-color="#2F00B6"/>
<stop offset="0.860638" stop-color="#BD00FF"/>
</linearGradient>
<linearGradient id="paint1_linear_367_1068" x1="162.73" y1="9.63962" x2="157.156" y2="9.69195" gradientUnits="userSpaceOnUse">
<stop stop-color="#2F00B6"/>
<stop offset="0.860638" stop-color="#BD00FF"/>
</linearGradient>
<linearGradient id="paint2_linear_367_1068" x1="171.019" y1="14.5922" x2="165.468" y2="14.6441" gradientUnits="userSpaceOnUse">
<stop stop-color="#2F00B6"/>
<stop offset="0.860638" stop-color="#BD00FF"/>
</linearGradient>
<linearGradient id="paint3_linear_367_1068" x1="173.699" y1="18.5426" x2="167.924" y2="18.6255" gradientUnits="userSpaceOnUse">
<stop stop-color="#2F00B6"/>
<stop offset="0.860638" stop-color="#BD00FF"/>
</linearGradient>
<linearGradient id="paint4_linear_367_1068" x1="159.708" y1="4.15651" x2="155.807" y2="4.1811" gradientUnits="userSpaceOnUse">
<stop stop-color="#2F00B6"/>
<stop offset="0.860638" stop-color="#BD00FF"/>
</linearGradient>
<linearGradient id="paint5_linear_367_1068" x1="149.084" y1="9.88566" x2="146.638" y2="9.91421" gradientUnits="userSpaceOnUse">
<stop stop-color="#2F00B6"/>
<stop offset="0.860638" stop-color="#BD00FF"/>
</linearGradient>
<linearGradient id="paint6_linear_367_1068" x1="165.853" y1="27.1458" x2="163.879" y2="27.1607" gradientUnits="userSpaceOnUse">
<stop stop-color="#2F00B6"/>
<stop offset="0.860638" stop-color="#BD00FF"/>
</linearGradient>
<clipPath id="clip0_367_1068">
<rect width="34.5001" height="36" fill="white" transform="translate(138.102)"/>
</clipPath>
</defs>
</svg>
