<?xml version="1.0" encoding="UTF-8"?>
<svg id="Layer_2" data-name="Layer 2" xmlns="http://www.w3.org/2000/svg" xmlns:xlink="http://www.w3.org/1999/xlink" viewBox="0 0 175.86 64">
  <defs>
    <style>
      .cls-1 {
        fill: #f5f5f5;
      }

      .cls-2 {
        clip-path: url(#clippath-1);
      }

      .cls-3 {
        clip-path: url(#clippath);
      }

      .cls-4 {
        clip-rule: evenodd;
        fill: none;
      }

      .cls-5 {
        fill: #1f1f1f;
      }
    </style>
    <clipPath id="clippath">
      <path class="cls-4" d="M40.31,32.97c.03-2.7,1.48-5.26,3.78-6.68-1.45-2.08-3.87-3.39-6.4-3.47-2.69-.28-5.3,1.62-6.67,1.62s-3.51-1.59-5.78-1.54c-2.96,.1-5.73,1.79-7.17,4.39-3.1,5.39-.79,13.3,2.18,17.66,1.49,2.13,3.22,4.51,5.49,4.43,2.22-.09,3.05-1.42,5.74-1.42s3.44,1.42,5.75,1.37c2.38-.04,3.89-2.14,5.32-4.29,1.07-1.52,1.89-3.2,2.43-4.97-2.8-1.19-4.67-4.02-4.68-7.08Z"/>
    </clipPath>
    <clipPath id="clippath-1">
      <path class="cls-4" d="M35.93,19.96c1.3-1.57,1.94-3.58,1.79-5.61-1.99,.21-3.82,1.16-5.14,2.67-1.29,1.47-1.96,3.45-1.83,5.41,1.99,.02,3.94-.91,5.19-2.46Z"/>
    </clipPath>
  </defs>
  <g id="Layer_1-2" data-name="Layer 1">
    <g>
      <rect class="cls-5" width="175.86" height="64" rx="12" ry="12"/>
      <path class="cls-1" d="M40.31,32.97c.03-2.7,1.48-5.26,3.78-6.68-1.45-2.08-3.87-3.39-6.4-3.47-2.69-.28-5.3,1.62-6.67,1.62s-3.51-1.59-5.78-1.54c-2.96,.1-5.73,1.79-7.17,4.39-3.1,5.39-.79,13.3,2.18,17.66,1.49,2.13,3.22,4.51,5.49,4.43,2.22-.09,3.05-1.42,5.74-1.42s3.44,1.42,5.75,1.37c2.38-.04,3.89-2.14,5.32-4.29,1.07-1.52,1.89-3.2,2.43-4.97-2.8-1.19-4.67-4.02-4.68-7.08Z"/>
      <path class="cls-1" d="M35.93,19.96c1.3-1.57,1.94-3.58,1.79-5.61-1.99,.21-3.82,1.16-5.14,2.67-1.29,1.47-1.96,3.45-1.83,5.41,1.99,.02,3.94-.91,5.19-2.46Z"/>
      <g class="cls-3">
        <g class="cls-2">
          <path class="cls-1" d="M30.68,29.08c4.04,.04,7.93-1.81,10.45-4.96l-10.4-8.33s.03-.03,.03-.03c0,0,0,0,0,0,0,0,0,0,0,0,0,0,.02,0,.06,0l-.14,13.32Zm-3.11-16.45c-2.45,2.8-3.71,6.51-3.47,10.22l13.29-.86c-.01-.2,.07-.45,.2-.59l-10.02-8.77Zm21.98,9.86c-2.65-3.8-7.02-6.17-11.65-6.32l-.42,13.31c.41,.01,.89,.27,1.14,.62l10.93-7.62Zm-24.53-6.24c-5.31,.17-10.2,3.17-12.78,7.82l11.65,6.46c.31-.56,.95-.94,1.56-.96l-.43-13.31Zm22.57,17.68c-.14-.06-.3-.18-.44-.38-.13-.2-.18-.4-.18-.57h-13.32c0,5.73,3.46,10.98,8.73,13.21l5.21-12.26Zm-.62-.86c0-.43,.27-.88,.61-1.1l-7-11.34c-4.24,2.62-6.87,7.29-6.94,12.26l13.32,.17ZM37.02,7.72c-3.66,.39-7.03,2.14-9.45,4.91l10.03,8.77c.22-.25,.51-.4,.82-.43l-1.4-13.25Zm4.04,16.49c2.41-2.9,3.59-6.62,3.3-10.37l-13.28,1.01c.02,.31-.08,.62-.27,.86l10.25,8.51Zm6.95,24.64c1.47-2.09,2.6-4.4,3.35-6.85l-12.74-3.91c-.34,1.11-.85,2.15-1.52,3.1l10.9,7.66Zm-10.66,7.12c3.35-.05,5.83-1.63,7.46-3.15,1.49-1.4,2.62-3.09,3.29-4.11l-11.09-7.38c-.35,.53-.62,.91-.86,1.24-.24,.32-.39,.48-.45,.53-.06,.05,.05-.06,.32-.19,.3-.14,.69-.25,1.11-.26l.22,13.32Zm-5.86-1.37s0,0-.07-.02c0,0,.04,0,.46,.18,.81,.35,2.77,1.26,5.52,1.2l-.31-13.32c.43,0,.85,.22,.02-.13-1.01-.43-2.89-1.24-5.62-1.24v13.32Zm-5.46,1.42c2.5-.1,4.37-1,4.99-1.26,.51-.21,.43-.16,.46-.16v-13.32c-2.65,0-4.49,.72-5.62,1.19-1.02,.43-.68,.25-.4,.23l.55,13.31Zm-11.23-7.28c.69,1,1.87,2.69,3.35,4.09,1.49,1.4,4.15,3.33,7.86,3.19l-.49-13.31c.68-.03,1.22,.15,1.54,.3,.28,.14,.36,.24,.23,.12-.12-.11-.32-.32-.6-.69-.29-.37-.58-.79-.95-1.31l-10.93,7.61Zm-2.49-24.78c-2.6,4.53-2.69,9.61-1.97,13.69,.73,4.13,2.41,8.09,4.42,11.04l11.01-7.5c-.95-1.4-1.91-3.58-2.31-5.84-.41-2.31-.1-3.88,.4-4.74l-11.55-6.64Zm18.72-6.19c.78,0,1.24,.2,1,.12-.24-.08-.4-.16-1.1-.44-1.01-.4-3.21-1.27-5.81-1.22l.28,13.32c-.33,0-.34-.1,.63,.29,.29,.11,1.05,.43,1.67,.65,.62,.21,1.86,.61,3.34,.61v-13.32Zm7.37-1.58c-3-.32-5.58,.6-6.89,1.1-.35,.13-.69,.27-.94,.37-.27,.11-.44,.17-.57,.22-.45,.16,.1-.11,1.03-.11v13.32c.9,0,1.66-.15,2.17-.28,.53-.13,.99-.29,1.34-.41,.35-.13,.7-.26,.96-.37,.29-.12,.51-.2,.73-.29,1.01-.38,1.08-.27,.77-.31l1.4-13.25Zm-7.64,6.22l-6.65,.43,.4,6.17,6.18,.06,.07-6.66Zm1.83-5.41l5.01,4.39h0s-5.01-4.39-5.01-4.39Zm5.14-2.67l6.64-.51-.52-6.84-6.82,.72,.7,6.62Zm-1.79,5.61l-5.13-4.25-.04,.04-.04,.05,5.2,4.16Zm9.05,20.09l6.37,1.95,1.76-5.74-5.52-2.35-2.6,6.13Zm-2.43,4.97l-5.45-3.83-.05,.07-.05,.07,5.54,3.69Zm-5.32,4.29l-.11-6.66h-.02s-.02,0-.02,0l.15,6.66Zm-11.49,.05l.25,6.66h.01s.01,0,.01,0l-.28-6.65Zm-5.49-4.43l-5.5,3.75,.02,.03,.02,.03,5.47-3.81Zm-2.18-17.66l5.77,3.32,.03-.05,.03-.05-5.83-3.23Zm7.17-4.39l-.14-6.66h-.04s-.04,0-.04,0l.22,6.66Zm12.45-.08l-.7,6.62,.24,.03h.25s.21-6.65,.21-6.65Zm6.4,3.47l3.5,5.67,5.99-3.7-4.03-5.78-5.46,3.81Zm-3.78,6.68l-6.66-.09v.05s0,.05,0,.05h6.66Z"/>
        </g>
      </g>
      <path class="cls-1" d="M119.58,30.18v3.28h-2.05v2.15h2.05v7.3c0,2.49,1.12,3.49,3.95,3.49,.5,0,.97-.06,1.38-.13v-2.13c-.35,.04-.58,.06-.97,.06-1.27,0-1.82-.59-1.82-1.95v-6.65h2.79v-2.15h-2.79v-3.28h-2.54Z"/>
      <path class="cls-1" d="M132.11,44.31c-2.21,0-3.45-1.63-3.45-4.45s1.24-4.44,3.45-4.44,3.45,1.64,3.45,4.44-1.25,4.45-3.45,4.45Zm0,2.27c3.76,0,6.07-2.53,6.07-6.72s-2.32-6.71-6.07-6.71-6.08,2.54-6.08,6.71,2.31,6.72,6.08,6.72Z"/>
      <path class="cls-1" d="M140.15,46.32h2.54v-7.63c0-1.82,1.36-3.04,3.29-3.04,.45,0,1.21,.08,1.42,.15v-2.52c-.27-.07-.76-.11-1.14-.11-1.68,0-3.11,.93-3.48,2.2h-.19v-1.98h-2.45v12.93Z"/>
      <path class="cls-1" d="M156.87,42.83c-.47,1.01-1.53,1.57-3.06,1.57-2.03,0-3.35-1.44-3.43-3.7v-.14h9.09v-.89c0-4.06-2.16-6.52-5.75-6.52s-5.94,2.62-5.94,6.76,2.26,6.67,5.95,6.67c2.94,0,5-1.42,5.58-3.74h-2.45Zm-3.16-7.51c1.88,0,3.11,1.32,3.17,3.35h-6.5c.14-2.02,1.45-3.35,3.33-3.35Z"/>
      <path class="cls-1" d="M102.91,41.55c.2,3.17,2.83,5.2,6.75,5.2,4.19,0,6.81-2.13,6.81-5.52,0-2.67-1.5-4.15-5.12-5l-1.95-.48c-2.3-.54-3.24-1.27-3.24-2.53,0-1.6,1.45-2.65,3.62-2.65s3.48,1.02,3.74,2.66h2.67c-.16-2.99-2.78-5.09-6.37-5.09-3.86,0-6.43,2.1-6.43,5.27,0,2.61,1.46,4.16,4.66,4.91l2.28,.55c2.34,.55,3.37,1.37,3.37,2.72,0,1.58-1.62,2.72-3.82,2.72-2.37,0-4.01-1.07-4.24-2.76h-2.72Z"/>
      <path class="cls-1" d="M75.85,44.25c-2.13,0-3.46-1.69-3.46-4.38s1.34-4.39,3.48-4.39,3.44,1.65,3.44,4.38-1.29,4.39-3.45,4.39Zm.72-11.06c-1.75,0-3.26,.88-4.04,2.35h-.19v-2.14h-2.45v17.23h2.54v-6.26h.2c.67,1.37,2.13,2.17,3.96,2.17,3.25,0,5.32-2.58,5.32-6.68s-2.07-6.67-5.35-6.67Z"/>
      <path class="cls-1" d="M90.09,44.25c-2.13,0-3.46-1.69-3.46-4.38s1.34-4.39,3.48-4.39,3.44,1.65,3.44,4.38-1.29,4.39-3.45,4.39Zm.72-11.06c-1.75,0-3.26,.88-4.04,2.35h-.19v-2.14h-2.45v17.23h2.54v-6.26h.2c.67,1.37,2.13,2.17,3.96,2.17,3.25,0,5.32-2.58,5.32-6.68s-2.07-6.67-5.35-6.67Z"/>
      <path class="cls-1" d="M60.24,31.79h.21l2.56,7.51h-5.34l2.57-7.51Zm5.09,14.53h2.92l-6.39-17.76h-2.95l-6.39,17.76h2.82l1.63-4.71h6.74l1.62,4.71Z"/>
      <path class="cls-1" d="M53.53,17.04h1.32c1.45,0,2.31,.92,2.31,2.51s-.84,2.52-2.31,2.52h-1.32v-5.03Zm-1.09-.99v7.02h2.52c2.08,0,3.29-1.29,3.29-3.53s-1.22-3.49-3.29-3.49h-2.52Z"/>
      <path class="cls-1" d="M61.95,22.24c-.91,0-1.41-.67-1.41-1.82s.51-1.82,1.41-1.82,1.41,.67,1.41,1.82-.51,1.82-1.41,1.82Zm0,.93c1.54,0,2.49-1.04,2.49-2.75s-.95-2.75-2.49-2.75-2.49,1.04-2.49,2.75,.94,2.75,2.49,2.75Z"/>
      <polygon class="cls-1" points="72.48 17.77 71.44 17.77 70.5 21.81 70.42 21.81 69.34 17.77 68.34 17.77 67.25 21.81 67.17 21.81 66.23 17.77 65.17 17.77 66.63 23.06 67.7 23.06 68.78 19.16 68.87 19.16 69.96 23.06 71.04 23.06 72.48 17.77"/>
      <path class="cls-1" d="M73.68,23.06h1.04v-3.1c0-.83,.49-1.34,1.26-1.34s1.14,.42,1.14,1.27v3.17h1.04v-3.43c0-1.26-.65-1.97-1.83-1.97-.79,0-1.32,.36-1.57,.94h-.08v-.84h-1v5.3Z"/>
      <rect class="cls-1" x="79.81" y="15.7" width="1.04" height="7.36"/>
      <path class="cls-1" d="M84.77,22.24c-.91,0-1.41-.67-1.41-1.82s.51-1.82,1.41-1.82,1.41,.67,1.41,1.82-.51,1.82-1.41,1.82Zm0,.93c1.54,0,2.49-1.04,2.49-2.75s-.95-2.75-2.49-2.75-2.49,1.04-2.49,2.75,.94,2.75,2.49,2.75Z"/>
      <path class="cls-1" d="M90.09,23.15c.69,0,1.27-.3,1.58-.83h.08v.74h1v-3.62c0-1.12-.75-1.78-2.07-1.78-1.2,0-2.05,.58-2.16,1.49h1.01c.12-.37,.52-.59,1.1-.59,.71,0,1.08,.32,1.08,.88v.46l-1.43,.08c-1.25,.08-1.96,.63-1.96,1.58s.74,1.59,1.76,1.59Zm.27-.88c-.57,0-.98-.28-.98-.75s.33-.71,1.06-.76l1.29-.08v.44c0,.66-.58,1.16-1.37,1.16Z"/>
      <path class="cls-1" d="M96.59,18.62c.87,0,1.42,.7,1.42,1.8s-.54,1.79-1.42,1.79-1.41-.68-1.41-1.8,.53-1.79,1.41-1.79Zm-.3,4.53c.73,0,1.34-.35,1.66-.92h.08v.84h1v-7.36h-1.04v2.91h-.08c-.29-.58-.9-.93-1.62-.93-1.33,0-2.19,1.06-2.19,2.73s.85,2.74,2.19,2.74Z"/>
      <path class="cls-1" d="M105.78,22.24c-.91,0-1.41-.67-1.41-1.82s.51-1.82,1.41-1.82,1.41,.67,1.41,1.82-.51,1.82-1.41,1.82Zm0,.93c1.54,0,2.49-1.04,2.49-2.75s-.95-2.75-2.49-2.75-2.49,1.04-2.49,2.75,.94,2.75,2.49,2.75Z"/>
      <path class="cls-1" d="M109.65,23.06h1.04v-3.1c0-.83,.49-1.34,1.26-1.34s1.14,.42,1.14,1.27v3.17h1.04v-3.43c0-1.26-.65-1.97-1.83-1.97-.79,0-1.32,.36-1.57,.94h-.08v-.84h-1v5.3Z"/>
      <path class="cls-1" d="M118.93,16.45v1.34h-.84v.88h.84v2.99c0,1.02,.46,1.43,1.62,1.43,.2,0,.4-.02,.57-.05v-.87c-.15,.01-.24,.02-.4,.02-.52,0-.75-.24-.75-.8v-2.72h1.14v-.88h-1.14v-1.34h-1.04Z"/>
      <path class="cls-1" d="M122.51,23.06h1.04v-3.09c0-.8,.47-1.34,1.33-1.34,.74,0,1.13,.43,1.13,1.27v3.16h1.04v-3.42c0-1.26-.69-1.97-1.82-1.97-.79,0-1.35,.36-1.61,.95h-.08v-2.92h-1.03v7.36Z"/>
      <path class="cls-1" d="M132.1,21.63c-.19,.41-.62,.64-1.25,.64-.83,0-1.37-.59-1.41-1.52v-.06h3.73v-.36c0-1.66-.89-2.67-2.35-2.67s-2.43,1.07-2.43,2.77,.93,2.73,2.44,2.73c1.21,0,2.05-.58,2.29-1.53h-1Zm-1.29-3.08c.77,0,1.27,.54,1.3,1.37h-2.66c.06-.83,.6-1.37,1.37-1.37Z"/>
    </g>
  </g>
</svg>