<svg width="173" height="64" viewBox="0 0 173 64" fill="none" xmlns="http://www.w3.org/2000/svg">
<rect x="0.856995" width="171.713" height="64" rx="12" fill="#1F1F1F"/>
<g filter="url(#filter0_ii_367_1074)">
<mask id="path-2-inside-1_367_1074" fill="white">
<path d="M17.2676 16.9311C16.8966 17.3253 16.6773 17.9372 16.6773 18.7295V47.038C16.6773 47.8316 16.8966 48.4421 17.2676 48.8364C17.3199 48.8874 17.4035 48.8868 17.4551 48.8351L33.0264 33.203C33.1108 33.1182 33.1583 33.0034 33.1583 32.8837C33.1583 32.764 33.1108 32.6492 33.0264 32.5644L17.4557 16.9317C17.4039 16.8797 17.3198 16.8794 17.2676 16.9311Z"/>
</mask>
<path d="M17.2676 16.9311C16.8966 17.3253 16.6773 17.9372 16.6773 18.7295V47.038C16.6773 47.8316 16.8966 48.4421 17.2676 48.8364C17.3199 48.8874 17.4035 48.8868 17.4551 48.8351L33.0264 33.203C33.1108 33.1182 33.1583 33.0034 33.1583 32.8837C33.1583 32.764 33.1108 32.6492 33.0264 32.5644L17.4557 16.9317C17.4039 16.8797 17.3198 16.8794 17.2676 16.9311Z" fill="#F5F5F5"/>
<path d="M17.4557 16.9317L16.7472 17.6374L17.4557 16.9317ZM33.0264 32.5644L33.7349 31.8587L33.0264 32.5644ZM33.0264 33.203L33.7349 33.9087L33.0264 33.203ZM17.4551 48.8351L16.7466 48.1294L17.4551 48.8351ZM16.5394 16.2457C15.9448 16.8775 15.6773 17.7643 15.6773 18.7295H17.6773C17.6773 18.1101 17.8484 17.7731 17.9959 17.6164L16.5394 16.2457ZM15.6773 18.7295V47.038H17.6773V18.7295H15.6773ZM15.6773 47.038C15.6773 48.0047 15.945 48.8901 16.5394 49.5217L17.9959 48.151C17.8483 47.9942 17.6773 47.6584 17.6773 47.038H15.6773ZM18.1636 49.5408L33.7349 33.9087L32.3179 32.4973L16.7466 48.1294L18.1636 49.5408ZM33.7349 31.8587L18.1642 16.226L16.7472 17.6374L32.3179 33.2701L33.7349 31.8587ZM18.1642 16.226C17.7235 15.7835 17.0077 15.7811 16.564 16.2206L17.9713 17.6416C17.6318 17.9778 17.0844 17.9759 16.7472 17.6374L18.1642 16.226ZM34.1583 32.8837C34.1583 32.4995 34.006 32.131 33.7349 31.8587L32.3179 33.2701C32.2156 33.1675 32.1583 33.0286 32.1583 32.8837H34.1583ZM33.7349 33.9087C34.006 33.6365 34.1583 33.268 34.1583 32.8837H32.1583C32.1583 32.7389 32.2157 32.5999 32.3179 32.4973L33.7349 33.9087ZM16.5689 49.5517C17.0135 49.986 17.7249 49.9811 18.1636 49.5408L16.7466 48.1294C17.0821 47.7925 17.6263 47.7888 17.9664 48.121L16.5689 49.5517Z" fill="#1F1F1F" mask="url(#path-2-inside-1_367_1074)"/>
<path d="M38.68 37.9083L38.6797 37.908L38.68 37.9083ZM38.5081 37.7356L33.6774 32.8837L38.508 28.0343L44.5332 31.4709C45.3324 31.9269 45.6169 32.4578 45.6169 32.8845C45.6169 33.3112 45.3324 33.8423 44.5333 34.299C44.5332 34.299 44.5331 34.2991 44.533 34.2991L38.5081 37.7356Z" fill="#F5F5F5" stroke="#1F1F1F"/>
<g filter="url(#filter1_i_367_1074)">
<path d="M38.5428 38.29L33.1571 32.8833L17.2678 48.8359C17.8543 49.4606 18.8246 49.5374 19.9173 48.9153L38.5428 38.29Z" fill="#F5F5F5"/>
</g>
<path d="M33.1572 33.5918L18.0425 48.7667C18.435 48.9145 18.9815 48.8726 19.6696 48.481L33.1572 33.5918ZM33.1572 33.5918L37.7272 38.1797L19.6699 48.4808L33.1572 33.5918Z" stroke="#1F1F1F"/>
<path d="M19.6695 17.2873L19.6696 17.2873L37.7273 27.5875L33.1583 32.1765L18.0424 17.0015C18.435 16.8532 18.9817 16.8949 19.6695 17.2873Z" fill="#F5F5F5" stroke="#1F1F1F"/>
</g>
<path d="M86.1329 34.432C83.3006 34.432 80.9921 36.5853 80.9921 39.551C80.9921 42.4986 83.3006 44.6699 86.1329 44.6699C88.9665 44.6699 91.2749 42.4986 91.2749 39.551C91.2737 36.5853 88.9653 34.432 86.1329 34.432ZM86.1329 42.6551C84.5807 42.6551 83.2428 41.3757 83.2428 39.5522C83.2428 37.7095 84.5819 36.4493 86.1329 36.4493C87.6852 36.4493 89.0231 37.7095 89.0231 39.5522C89.0231 41.3744 87.6852 42.6551 86.1329 42.6551ZM74.9168 34.432C72.0845 34.432 69.776 36.5853 69.776 39.551C69.776 42.4986 72.0845 44.6699 74.9168 44.6699C77.7504 44.6699 80.0589 42.4986 80.0589 39.551C80.0589 36.5853 77.7504 34.432 74.9168 34.432ZM74.9168 42.6551C73.3646 42.6551 72.0267 41.3757 72.0267 39.5522C72.0267 37.7095 73.3658 36.4493 74.9168 36.4493C76.4691 36.4493 77.807 37.7095 77.807 39.5522C77.8082 41.3744 76.4691 42.6551 74.9168 42.6551ZM61.5765 36.0039V38.1753H66.7763C66.621 39.3969 66.214 40.2888 65.5926 40.9087C64.8363 41.6645 63.6526 42.4986 61.5765 42.4986C58.3757 42.4986 55.8734 39.9193 55.8734 36.7201C55.8734 33.5209 58.3757 30.9416 61.5765 30.9416C63.3034 30.9416 64.5642 31.6204 65.4951 32.493L67.028 30.9608C65.7275 29.7199 64.0018 28.7703 61.5765 28.7703C57.192 28.7703 53.5059 32.3378 53.5059 36.7201C53.5059 41.1024 57.192 44.6699 61.5765 44.6699C63.9428 44.6699 65.7287 43.8936 67.1244 42.4396C68.5598 41.0049 69.0066 38.9877 69.0066 37.3592C69.0066 36.8561 68.968 36.3903 68.8897 36.0027L61.5765 36.0039ZM116.137 37.6902C115.711 36.5468 114.41 34.432 111.753 34.432C109.114 34.432 106.921 36.5071 106.921 39.551C106.921 42.4204 109.095 44.6699 112.004 44.6699C114.351 44.6699 115.71 43.2352 116.273 42.4011L114.527 41.2372C113.946 42.0906 113.15 42.6527 112.004 42.6527C110.86 42.6527 110.045 42.1291 109.521 41.1012L116.37 38.2703L116.137 37.6902ZM109.153 39.3969C109.095 37.4182 110.686 36.4108 111.831 36.4108C112.723 36.4108 113.48 36.8573 113.732 37.4964L109.153 39.3969ZM103.586 44.3606H105.835V29.3143H103.586V44.3606ZM99.8983 35.5767H99.8213C99.3167 34.9749 98.3461 34.432 97.125 34.432C94.5637 34.432 92.2166 36.6816 92.2166 39.5714C92.2166 42.4408 94.5637 44.6711 97.125 44.6711C98.3473 44.6711 99.3167 44.1283 99.8213 43.5084H99.8983V44.2451C99.8983 46.2033 98.8507 47.2505 97.1636 47.2505C95.7859 47.2505 94.9322 46.2623 94.5829 45.4282L92.6237 46.243C93.186 47.5995 94.6793 49.2677 97.1636 49.2677C99.802 49.2677 102.033 47.7163 102.033 43.9345V34.7438H99.8996L99.8983 35.5767ZM97.3189 42.6551C95.7667 42.6551 94.4673 41.3552 94.4673 39.5714C94.4673 37.7672 95.7667 36.4493 97.3189 36.4493C98.8507 36.4493 100.054 37.7672 100.054 39.5714C100.054 41.3552 98.8507 42.6551 97.3189 42.6551ZM126.679 29.3143H121.295V44.3606H123.541V38.6603H126.678C129.168 38.6603 131.617 36.8585 131.617 33.9879C131.617 31.1173 129.169 29.3143 126.679 29.3143ZM126.737 36.566H123.541V31.4086H126.737C128.417 31.4086 129.37 32.7987 129.37 33.9879C129.37 35.153 128.417 36.566 126.737 36.566ZM140.624 34.4056C138.997 34.4056 137.312 35.1217 136.615 36.7093L138.609 37.541C139.035 36.7093 139.83 36.4372 140.662 36.4372C141.824 36.4372 143.006 37.1341 143.025 38.3727V38.5279C142.618 38.2956 141.746 37.9478 140.682 37.9478C138.532 37.9478 136.343 39.1285 136.343 41.3347C136.343 43.3484 138.106 44.6447 140.081 44.6447C141.591 44.6447 142.424 43.967 142.947 43.1726H143.024V44.3341H145.194V38.5652C145.195 35.8956 143.198 34.4056 140.624 34.4056ZM140.352 42.6515C139.617 42.6515 138.59 42.2832 138.59 41.3732C138.59 40.2118 139.869 39.7664 140.973 39.7664C141.959 39.7664 142.425 39.9795 143.025 40.2695C142.85 41.6645 141.65 42.6515 140.352 42.6515ZM153.096 34.7341L150.52 41.2577H150.443L147.77 34.7341H145.349L149.358 43.8515L147.072 48.9235H149.416L155.595 34.7341H153.096ZM132.858 44.3606H135.104V29.3143H132.858V44.3606Z" fill="#F5F5F5"/>
<path d="M61.2964 20.4149C61.2964 21.4053 60.998 22.1935 60.4001 22.7821C59.7215 23.4817 58.836 23.8315 57.7484 23.8315C56.7064 23.8315 55.8197 23.477 55.0918 22.7679C54.3627 22.0576 53.9982 21.1784 53.9982 20.1289C53.9982 19.0783 54.3627 18.199 55.0918 17.49C55.8197 16.7797 56.7064 16.4252 57.7484 16.4252C58.2657 16.4252 58.7602 16.5244 59.2294 16.7218C59.6998 16.9203 60.0764 17.1839 60.358 17.5136L59.7239 18.1376C59.2463 17.5762 58.5881 17.2961 57.7471 17.2961C56.9868 17.2961 56.3298 17.5585 55.7752 18.0832C55.2206 18.6079 54.9438 19.2898 54.9438 20.1277C54.9438 20.9656 55.2206 21.6475 55.7752 22.1723C56.3298 22.697 56.9868 22.9593 57.7471 22.9593C58.5533 22.9593 59.2258 22.6958 59.7636 22.1675C60.1125 21.8236 60.3146 21.345 60.3688 20.7316H57.7471V19.8796H61.2447C61.2808 20.0651 61.2964 20.2436 61.2964 20.4149Z" fill="#F5F5F5"/>
<path d="M66.843 17.4534H63.556V19.7012H66.5206V20.5533H63.556V22.801H66.843V23.6732H62.6284V16.5824H66.843V17.4534Z" fill="#F5F5F5"/>
<path d="M70.7543 23.6732H69.8267V17.4534H67.8102V16.5824H72.7707V17.4534H70.7543V23.6732Z" fill="#F5F5F5"/>
<path d="M76.3596 23.6732V16.5824H77.2873V23.6732H76.3596Z" fill="#F5F5F5"/>
<path d="M81.401 23.6732H80.4734V17.4534H78.4569V16.5824H83.4175V17.4534H81.401V23.6732Z" fill="#F5F5F5"/>
<path d="M92.8077 22.7573C92.0978 23.4735 91.2159 23.8316 90.1608 23.8316C89.1056 23.8316 88.2237 23.4735 87.5151 22.7573C86.8052 22.0411 86.4515 21.1642 86.4515 20.1278C86.4515 19.0914 86.8052 18.2145 87.5151 17.4983C88.2237 16.7821 89.1056 16.4229 90.1608 16.4229C91.2099 16.4229 92.0906 16.7833 92.8029 17.503C93.5151 18.2227 93.8713 19.0973 93.8713 20.1278C93.8713 21.1642 93.5163 22.0411 92.8077 22.7573ZM88.1997 22.1629C88.7339 22.6947 89.3872 22.9594 90.1608 22.9594C90.9344 22.9594 91.5889 22.6935 92.1219 22.1629C92.6561 21.6311 92.9244 20.9527 92.9244 20.1278C92.9244 19.3029 92.6561 18.6245 92.1219 18.0927C91.5889 17.5609 90.9344 17.2962 90.1608 17.2962C89.3872 17.2962 88.7339 17.5621 88.1997 18.0927C87.6667 18.6245 87.3984 19.3029 87.3984 20.1278C87.3984 20.9527 87.6667 21.6311 88.1997 22.1629Z" fill="#F5F5F5"/>
<path d="M95.1731 23.6732V16.5824H96.3016L99.81 22.0979H99.8497L99.81 20.7317V16.5824H100.738V23.6732H99.7691L96.0983 17.8895H96.0586L96.0983 19.2556V23.6732H95.1731Z" fill="#F5F5F5"/>
<path d="M61.2964 20.4149C61.2964 21.4053 60.998 22.1935 60.4001 22.7821C59.7215 23.4817 58.836 23.8315 57.7484 23.8315C56.7064 23.8315 55.8197 23.477 55.0918 22.7679C54.3627 22.0576 53.9982 21.1784 53.9982 20.1289C53.9982 19.0783 54.3627 18.199 55.0918 17.49C55.8197 16.7797 56.7064 16.4252 57.7484 16.4252C58.2657 16.4252 58.7602 16.5244 59.2294 16.7218C59.6998 16.9203 60.0764 17.1839 60.358 17.5136L59.7239 18.1376C59.2463 17.5762 58.5881 17.2961 57.7471 17.2961C56.9868 17.2961 56.3298 17.5585 55.7752 18.0832C55.2206 18.6079 54.9438 19.2898 54.9438 20.1277C54.9438 20.9656 55.2206 21.6475 55.7752 22.1723C56.3298 22.697 56.9868 22.9593 57.7471 22.9593C58.5533 22.9593 59.2258 22.6958 59.7636 22.1675C60.1125 21.8236 60.3146 21.345 60.3688 20.7316H57.7471V19.8796H61.2447C61.2808 20.0651 61.2964 20.2436 61.2964 20.4149Z" stroke="#F5F5F5" stroke-width="0.204511" stroke-miterlimit="10"/>
<path d="M66.843 17.4534H63.556V19.7012H66.5206V20.5533H63.556V22.801H66.843V23.6732H62.6284V16.5824H66.843V17.4534Z" stroke="#F5F5F5" stroke-width="0.204511" stroke-miterlimit="10"/>
<path d="M70.7543 23.6732H69.8267V17.4534H67.8102V16.5824H72.7707V17.4534H70.7543V23.6732Z" stroke="#F5F5F5" stroke-width="0.204511" stroke-miterlimit="10"/>
<path d="M76.3596 23.6732V16.5824H77.2873V23.6732H76.3596Z" stroke="#F5F5F5" stroke-width="0.204511" stroke-miterlimit="10"/>
<path d="M81.401 23.6732H80.4734V17.4534H78.4569V16.5824H83.4175V17.4534H81.401V23.6732Z" stroke="#F5F5F5" stroke-width="0.204511" stroke-miterlimit="10"/>
<path d="M92.8077 22.7573C92.0978 23.4735 91.2159 23.8316 90.1608 23.8316C89.1056 23.8316 88.2237 23.4735 87.5151 22.7573C86.8052 22.0411 86.4515 21.1642 86.4515 20.1278C86.4515 19.0914 86.8052 18.2145 87.5151 17.4983C88.2237 16.7821 89.1056 16.4229 90.1608 16.4229C91.2099 16.4229 92.0906 16.7833 92.8029 17.503C93.5151 18.2227 93.8713 19.0973 93.8713 20.1278C93.8713 21.1642 93.5163 22.0411 92.8077 22.7573ZM88.1997 22.1629C88.7339 22.6947 89.3872 22.9594 90.1608 22.9594C90.9344 22.9594 91.5889 22.6935 92.1219 22.1629C92.6561 21.6311 92.9244 20.9527 92.9244 20.1278C92.9244 19.3029 92.6561 18.6245 92.1219 18.0927C91.5889 17.5609 90.9344 17.2962 90.1608 17.2962C89.3872 17.2962 88.7339 17.5621 88.1997 18.0927C87.6667 18.6245 87.3984 19.3029 87.3984 20.1278C87.3984 20.9527 87.6667 21.6311 88.1997 22.1629Z" stroke="#F5F5F5" stroke-width="0.204511" stroke-miterlimit="10"/>
<path d="M95.1731 23.6732V16.5824H96.3016L99.81 22.0979H99.8497L99.81 20.7317V16.5824H100.738V23.6732H99.7691L96.0983 17.8895H96.0586L96.0983 19.2556V23.6732H95.1731Z" stroke="#F5F5F5" stroke-width="0.204511" stroke-miterlimit="10"/>
<defs>
<filter id="filter0_ii_367_1074" x="16.6773" y="16.4229" width="29.4396" height="32.9221" filterUnits="userSpaceOnUse" color-interpolation-filters="sRGB">
<feFlood flood-opacity="0" result="BackgroundImageFix"/>
<feBlend mode="normal" in="SourceGraphic" in2="BackgroundImageFix" result="shape"/>
<feColorMatrix in="SourceAlpha" type="matrix" values="0 0 0 0 0 0 0 0 0 0 0 0 0 0 0 0 0 0 127 0" result="hardAlpha"/>
<feOffset dy="-0.795"/>
<feComposite in2="hardAlpha" operator="arithmetic" k2="-1" k3="1"/>
<feColorMatrix type="matrix" values="0 0 0 0 0 0 0 0 0 0 0 0 0 0 0 0 0 0 0.12 0"/>
<feBlend mode="normal" in2="shape" result="effect1_innerShadow_367_1074"/>
<feColorMatrix in="SourceAlpha" type="matrix" values="0 0 0 0 0 0 0 0 0 0 0 0 0 0 0 0 0 0 127 0" result="hardAlpha"/>
<feOffset dy="0.795"/>
<feComposite in2="hardAlpha" operator="arithmetic" k2="-1" k3="1"/>
<feColorMatrix type="matrix" values="0 0 0 0 1 0 0 0 0 1 0 0 0 0 1 0 0 0 0.25 0"/>
<feBlend mode="normal" in2="effect1_innerShadow_367_1074" result="effect2_innerShadow_367_1074"/>
</filter>
<filter id="filter1_i_367_1074" x="17.2678" y="32.8833" width="21.275" height="16.4617" filterUnits="userSpaceOnUse" color-interpolation-filters="sRGB">
<feFlood flood-opacity="0" result="BackgroundImageFix"/>
<feBlend mode="normal" in="SourceGraphic" in2="BackgroundImageFix" result="shape"/>
<feColorMatrix in="SourceAlpha" type="matrix" values="0 0 0 0 0 0 0 0 0 0 0 0 0 0 0 0 0 0 127 0" result="hardAlpha"/>
<feOffset dy="-0.795"/>
<feComposite in2="hardAlpha" operator="arithmetic" k2="-1" k3="1"/>
<feColorMatrix type="matrix" values="0 0 0 0 0 0 0 0 0 0 0 0 0 0 0 0 0 0 0.08 0"/>
<feBlend mode="normal" in2="shape" result="effect1_innerShadow_367_1074"/>
</filter>
</defs>
</svg>
