<svg width="18" height="18" viewBox="0 0 18 18" fill="none" xmlns="http://www.w3.org/2000/svg">
<path d="M5.49996 0.666748H12.5C15.1666 0.666748 17.3333 2.83341 17.3333 5.50008V12.5001C17.3333 13.782 16.8241 15.0113 15.9176 15.9178C15.0112 16.8242 13.7818 17.3334 12.5 17.3334H5.49996C2.83329 17.3334 0.666626 15.1667 0.666626 12.5001V5.50008C0.666626 4.2182 1.17585 2.98882 2.08228 2.0824C2.9887 1.17597 4.21808 0.666748 5.49996 0.666748ZM5.33329 2.33341C4.53764 2.33341 3.77458 2.64949 3.21197 3.21209C2.64936 3.7747 2.33329 4.53777 2.33329 5.33341V12.6667C2.33329 14.3251 3.67496 15.6667 5.33329 15.6667H12.6666C13.4623 15.6667 14.2253 15.3507 14.7879 14.7881C15.3506 14.2255 15.6666 13.4624 15.6666 12.6667V5.33341C15.6666 3.67508 14.325 2.33341 12.6666 2.33341H5.33329ZM13.375 3.58341C13.6512 3.58341 13.9162 3.69316 14.1115 3.88851C14.3069 4.08386 14.4166 4.34881 14.4166 4.62508C14.4166 4.90135 14.3069 5.1663 14.1115 5.36165C13.9162 5.557 13.6512 5.66675 13.375 5.66675C13.0987 5.66675 12.8337 5.557 12.6384 5.36165C12.443 5.1663 12.3333 4.90135 12.3333 4.62508C12.3333 4.34881 12.443 4.08386 12.6384 3.88851C12.8337 3.69316 13.0987 3.58341 13.375 3.58341ZM8.99996 4.83341C10.105 4.83341 11.1648 5.2724 11.9462 6.0538C12.7276 6.8352 13.1666 7.89501 13.1666 9.00008C13.1666 10.1052 12.7276 11.165 11.9462 11.9464C11.1648 12.7278 10.105 13.1667 8.99996 13.1667C7.89489 13.1667 6.83508 12.7278 6.05368 11.9464C5.27228 11.165 4.83329 10.1052 4.83329 9.00008C4.83329 7.89501 5.27228 6.8352 6.05368 6.0538C6.83508 5.2724 7.89489 4.83341 8.99996 4.83341ZM8.99996 6.50008C8.33692 6.50008 7.70103 6.76347 7.23219 7.23231C6.76335 7.70115 6.49996 8.33704 6.49996 9.00008C6.49996 9.66312 6.76335 10.299 7.23219 10.7678C7.70103 11.2367 8.33692 11.5001 8.99996 11.5001C9.663 11.5001 10.2989 11.2367 10.7677 10.7678C11.2366 10.299 11.5 9.66312 11.5 9.00008C11.5 8.33704 11.2366 7.70115 10.7677 7.23231C10.2989 6.76347 9.663 6.50008 8.99996 6.50008Z" fill="#1F1F1F"/>
</svg>
